Coordinates
version=1
nRows=12
nColumns=42
inDegrees=yes

Units are S.I. units (second, meters, Newtons, ...)
Angles are in degrees.

endheader
time	pelvis_tilt	pelvis_list	pelvis_rotation	pelvis_tx	pelvis_ty	pelvis_tz	hip_flexion_r	hip_adduction_r	hip_rotation_r	knee_angle_r	ankle_angle_r	subtalar_angle_r	mtp_angle_r	hip_flexion_l	hip_adduction_l	hip_rotation_l	knee_angle_l	ankle_angle_l	subtalar_angle_l	mtp_angle_l	lumbar_extension	lumbar_bending	lumbar_rotation	arm_flex_r	arm_add_r	arm_rot_r	elbow_flex_r	pro_sup_r	wrist_flex_r	wrist_dev_r	arm_flex_l	arm_add_l	arm_rot_l	elbow_flex_l	pro_sup_l	wrist_flex_l	wrist_dev_l	scapula_weld_r	clavicle_weld_r	scapula_weld_l	clavicle_weld_l
      3.73000000	     -9.85536842	     -1.12008544	      0.46994621	     -0.07797579	      0.88398334	      0.02088121	      9.67193588	     -4.75750749	    -21.39677799	    -30.06230849	     28.23243780	      0.00000000	      0.00000000	     42.83085601	     -9.76898182	     -7.34020630	    -23.46793835	      1.03086098	      0.00000000	      0.00000000	      0.00000000	      0.00000000	      0.00000000	      0.00000000	    -13.29272884	      0.00000000	     75.28583741	     44.92393035	      0.00000000	      0.00000000	      0.00000000	    -13.29272884	      0.00000000	     75.28583741	     44.92393035	      0.00000000	      0.00000000	      0.00000000	      0.00000000	      0.00000000	      0.00000000
      3.74000000	     -9.92964797	     -1.10916879	      0.42358133	     -0.07166248	      0.88334713	      0.01764523	      9.45998426	     -5.01259030	    -21.14942789	    -30.31470350	     28.14600107	      0.00000000	      0.00000000	     42.83058656	     -9.55770282	     -7.19331457	    -23.99339544	      0.67442197	      0.00000000	      0.00000000	      0.00000000	      0.00000000	      0.00000000	      0.00000000	    -13.29301343	      0.00000000	     75.28574422	     44.92399915	      0.00000000	      0.00000000	      0.00000000	    -13.29301343	      0.00000000	     75.28574422	     44.92399915	      0.00000000	      0.00000000	      0.00000000	      0.00000000	      0.00000000	      0.00000000
      3.75000000	     -9.94574759	     -0.70092112	      0.35416867	     -0.06541806	      0.88299563	      0.01421552	      9.38475438	     -5.84079361	    -21.02904353	    -31.00910990	     28.02421446	      0.00000000	      0.00000000	     42.58050451	     -9.04089615	     -7.55200887	    -24.22262037	     -0.46685364	      0.00000000	      0.00000000	      0.00000000	      0.00000000	      0.00000000	      0.00000000	    -13.29590362	      0.00000000	     75.28479767	     44.92469672	      0.00000000	      0.00000000	      0.00000000	    -13.29590362	      0.00000000	     75.28479767	     44.92469672	      0.00000000	      0.00000000	      0.00000000	      0.00000000	      0.00000000	      0.00000000
      3.76000000	     -9.94794782	     -0.50406500	      0.34505153	     -0.05910057	      0.88271782	      0.01073403	      9.22957407	     -6.40984341	    -20.92746362	    -31.56161311	     27.74378801	      0.00000000	      0.00000000	     42.48563481	     -8.68312899	     -7.71046239	    -24.73255304	     -1.14593220	      0.00000000	      0.00000000	      0.00000000	      0.00000000	      0.00000000	      0.00000000	    -13.29759782	      0.00000000	     75.28424359	     44.92510301	      0.00000000	      0.00000000	      0.00000000	    -13.29759782	      0.00000000	     75.28424359	     44.92510301	      0.00000000	      0.00000000	      0.00000000	      0.00000000	      0.00000000	      0.00000000
      3.77000000	     -9.96330548	     -0.45904669	      0.37057036	     -0.05272864	      0.88258001	      0.00723507	      9.02717608	     -6.73784040	    -20.63888218	    -31.95778976	     27.51709972	      0.00000000	      0.00000000	     42.48890924	     -8.41521323	     -7.57992616	    -25.38535020	     -1.44823256	      0.00000000	      0.00000000	      0.00000000	      0.00000000	      0.00000000	      0.00000000	    -13.29786459	      0.00000000	     75.28415648	     44.92516669	      0.00000000	      0.00000000	      0.00000000	    -13.29786459	      0.00000000	     75.28415648	     44.92516669	      0.00000000	      0.00000000	      0.00000000	      0.00000000	      0.00000000	      0.00000000
      3.78000000	     -9.91031508	      0.21118895	      0.34043651	     -0.04629070	      0.88276064	      0.00337913	      9.02269937	     -8.00054061	    -20.67559478	    -32.95945844	     27.02585869	      0.00000000	      0.00000000	     42.14572395	     -7.64362540	     -8.11286884	    -25.68009203	     -2.24850075	      0.00000000	      0.00000000	      0.00000000	      0.00000000	      0.00000000	      0.00000000	    -13.30138627	      0.00000000	     75.28300644	     44.92600531	      0.00000000	      0.00000000	      0.00000000	    -13.30138627	      0.00000000	     75.28300644	     44.92600531	      0.00000000	      0.00000000	      0.00000000	      0.00000000	      0.00000000	      0.00000000
      3.79000000	     -9.86912354	      0.49822743	      0.37186433	     -0.03979806	      0.88298850	     -0.00037693	      8.91293982	     -8.74498270	    -20.59938114	    -33.69128889	     26.42141349	      0.00000000	      0.00000000	     42.03281048	     -7.18618751	     -8.28913630	    -26.31101474	     -2.57010162	      0.00000000	      0.00000000	      0.00000000	      0.00000000	      0.00000000	      0.00000000	    -13.30342728	      0.00000000	     75.28234100	     44.92648781	      0.00000000	      0.00000000	      0.00000000	    -13.30342728	      0.00000000	     75.28234100	     44.92648781	      0.00000000	      0.00000000	      0.00000000	      0.00000000	      0.00000000	      0.00000000
      3.80000000	     -9.79468607	      0.81944069	      0.41600455	     -0.03334630	      0.88336641	     -0.00418506	      8.84595059	     -9.56031143	    -20.51936343	    -34.56355790	     25.70903042	      0.00000000	      0.00000000	     41.88248529	     -6.69516983	     -8.49825221	    -26.94867915	     -2.73661204	      0.00000000	      0.00000000	      0.00000000	      0.00000000	      0.00000000	      0.00000000	    -13.30524927	      0.00000000	     75.28174761	     44.92691638	      0.00000000	      0.00000000	      0.00000000	    -13.30524927	      0.00000000	     75.28174761	     44.92691638	      0.00000000	      0.00000000	      0.00000000	      0.00000000	      0.00000000	      0.00000000
      3.81000000	     -9.71320126	      1.19479813	      0.46589587	     -0.02682720	      0.88391075	     -0.00804965	      8.80731145	    -10.44857483	    -20.39349189	    -35.49973969	     24.92422485	      0.00000000	      0.00000000	     41.67011289	     -6.14162845	     -8.71082991	    -27.52018266	     -2.77226785	      0.00000000	      0.00000000	      0.00000000	      0.00000000	      0.00000000	      0.00000000	    -13.30727122	      0.00000000	     75.28108984	     44.92738951	      0.00000000	      0.00000000	      0.00000000	    -13.30727122	      0.00000000	     75.28108984	     44.92738951	      0.00000000	      0.00000000	      0.00000000	      0.00000000	      0.00000000	      0.00000000
      3.82000000	     -9.57433195	      1.64850633	      0.48984443	     -0.02034757	      0.88461344	     -0.01195457	      8.80035846	    -11.47339550	    -20.28217948	    -36.58453733	     24.06383109	      0.00000000	      0.00000000	     41.34289894	     -5.52552168	     -8.98477583	    -28.02074030	     -2.73540180	      0.00000000	      0.00000000	      0.00000000	      0.00000000	      0.00000000	      0.00000000	    -13.31103449	      0.00000000	     75.27986752	     44.92826353	      0.00000000	      0.00000000	      0.00000000	    -13.31103449	      0.00000000	     75.27986752	     44.92826353	      0.00000000	      0.00000000	      0.00000000	      0.00000000	      0.00000000	      0.00000000
      3.83000000	     -9.51180949	      2.02123664	      0.51804792	     -0.01391695	      0.88535350	     -0.01582669	      8.91509199	    -12.40961600	    -20.13090548	    -37.69610715	     22.88394824	      0.00000000	      0.00000000	     41.08659918	     -4.98004749	     -9.22760150	    -28.50397929	     -2.47689507	      0.00000000	      0.00000000	      0.00000000	      0.00000000	      0.00000000	      0.00000000	    -13.31367250	      0.00000000	     75.27901225	     44.92887112	      0.00000000	      0.00000000	      0.00000000	    -13.31367250	      0.00000000	     75.27901225	     44.92887112	      0.00000000	      0.00000000	      0.00000000	      0.00000000	      0.00000000	      0.00000000
      3.84000000	     -9.41286895	      2.41768225	      0.55655770	     -0.00761272	      0.88616618	     -0.01970657	      9.06986030	    -13.39716594	    -19.96526728	    -38.92280784	     21.72969907	      0.00000000	      0.00000000	     40.77877425	     -4.41730553	     -9.54588926	    -28.95815693	     -2.25369738	      0.00000000	      0.00000000	      0.00000000	      0.00000000	      0.00000000	      0.00000000	    -13.31740036	      0.00000000	     75.27780588	     44.92972228	      0.00000000	      0.00000000	      0.00000000	    -13.31740036	      0.00000000	     75.27780588	     44.92972228	      0.00000000	      0.00000000	      0.00000000	      0.00000000	      0.00000000	      0.00000000
